# xmcd
#
# Track frame offsets: 
#        150
#        13495
#        26170
#        42921
#        56087
#        69040
#        78972
#        92148
#        103641
#        115570
#        128822
#        140787
#        152449
#        164935
#        176455
#        189661
#        203797
#        215041
#        226839
#        237670
#        252413
#        262648
#        275289
#        288096
#        298373
#        312895
#        324695
#        334222
#
# Disc length: 4608 seconds
#
# Revision: 0
# Processed by: cddbd v1.5.1PL0 Copyright (c) Steve Scherf et al.
# Submitted via: ExactAudioCopy v0.95a5
#
DISCID=a411fe1c
DTITLE=Various Artist - Roll 'Em Pete - 25 years of Piano Blues and Boogie 1928
DTITLE=1953 CD3
DYEAR=2004
DGENRE=Blues
TTITLE0=Big Maceo - Chicago Breakdown
TTITLE1=Memphis Slim - Misake In Life
TTITLE2=Albert Ammons - Boogie Woogie Stomp
TTITLE3=Eddie Boyd - Blue Monday Blues
TTITLE4=Sunnyland Slim - Down Home child
TTITLE5=Jay McShann - Bad Tale Boogie
TTITLE6=Roosevelt Sykes - Fine And Brown
TTITLE7=Charles Brown - Johnny's Boogie
TTITLE8=Sonny Thompson - After Sundown
TTITLE9=Lee Brown - Horse Shoe Boogie
TTITLE10=Little Willie Littlefield - Too Late For Me
TTITLE11=Joe Liggins - Drippers Boogie
TTITLE12=Floyd Dixon - Doin' the town
TTITLE13=Piano Red - Rockin' With Red
TTITLE14=Lonnie Lyons - Down In The Groovy
TTITLE15=Amos Milburn - Real gone
TTITLE16=Ray Hawkins - Wine Drinkin' Woman
TTITLE17=Rosco Gordon - Ouch! Pretty Baby
TTITLE18=Lloyd Glenn - Chica Boo
TTITLE19=Jimmy McCracklin - Bad Luck And Trouble
TTITLE20=Gunter Lee Carr (aka Cecil Gant) - We're Gonna Rock
TTITLE21=Professor Longhair - East St Louis Baby
TTITLE22=Mercy Dee Walton - One Room Country Shack
TTITLE23=Willard McDaniel - 3 a.m boogie
TTITLE24=Champion Jack Dupree - Number Nine Blues
TTITLE25=Fats Domino - The Fat Man
TTITLE26=Camille Howard - X-Temporaneous boogie
TTITLE27=Billy Love - Juiced
EXTD=
EXTT0=
EXTT1=
EXTT2=
EXTT3=
EXTT4=
EXTT5=
EXTT6=
EXTT7=
EXTT8=
EXTT9=
EXTT10=
EXTT11=
EXTT12=
EXTT13=
EXTT14=
EXTT15=
EXTT16=
EXTT17=
EXTT18=
EXTT19=
EXTT20=
EXTT21=
EXTT22=
EXTT23=
EXTT24=
EXTT25=
EXTT26=
EXTT27=
PLAYORDER=
